<?xml version="1.0" standalone="no"?>
<!DOCTYPE svg PUBLIC "-//W3C//DTD SVG 20010904//EN"
 "http://www.w3.org/TR/2001/REC-SVG-20010904/DTD/svg10.dtd">
<svg version="1.0" xmlns="http://www.w3.org/2000/svg"
 width="200.000000pt" height="200.000000pt" viewBox="0 0 200.000000 200.000000"
 preserveAspectRatio="xMidYMid meet">
<metadata>
Created by potrace 1.16, written by Peter Selinger 2001-2019
</metadata>
<g transform="translate(0.000000,200.000000) scale(0.100000,-0.100000)"
fill="#000000" stroke="none">
<path d="M1675 1395 c-19 -18 -25 -35 -25 -70 0 -25 -4 -45 -8 -45 -13 0 -42
-57 -42 -84 l0 -26 -222 -2 -223 -3 -3 -292 -2 -293 230 0 230 0 0 217 c0 169
3 214 12 205 31 -31 94 1 85 45 -3 18 0 23 15 23 28 0 74 26 92 52 9 12 16 39
16 60 0 35 2 38 28 38 35 0 52 16 52 52 0 31 -30 53 -61 45 -15 -4 -19 0 -19
24 0 45 -39 79 -90 79 -30 0 -47 -6 -65 -25z m80 -125 c31 -12 55 -64 48 -103
-10 -54 -76 -82 -126 -55 -34 17 -46 39 -47 80 0 28 7 42 31 62 33 28 53 32
94 16z m-322 -278 c3 -4 -1 -25 -9 -47 -17 -49 -18 -87 -2 -103 9 -9 9 -12 -1
-12 -7 0 -11 -9 -9 -22 4 -31 47 -38 55 -10 3 11 16 23 29 26 14 4 29 17 33
29 9 22 9 22 16 -4 10 -41 -12 -106 -50 -144 -65 -64 -166 -70 -231 -13 -36
32 -74 87 -42 60 14 -11 15 -9 2 28 -29 84 20 167 116 200 60 20 86 24 93 12z"/>
</g>
</svg>
